<svg xmlns="http://www.w3.org/2000/svg" width="197.131" height="78.256" viewBox="0 0 197.131 78.256"><g id="Grupo_196" data-name="Grupo 196" transform="translate(-861.39 -347.245)"><path id="person" fill="#ff4d00" d="M41.128,41.128A19.564,19.564,0,1,0,21.564,21.564,19.564,19.564,0,0,0,41.128,41.128ZM54.171,21.564A13.043,13.043,0,1,1,41.128,8.521,13.043,13.043,0,0,1,54.171,21.564ZM80.257,73.735c0,6.521-6.521,6.521-6.521,6.521H8.521S2,80.256,2,73.735,8.521,47.649,41.128,47.649,80.257,67.213,80.257,73.735Zm-6.521-.026c-.007-1.6-1-6.43-5.426-10.852-4.252-4.252-12.254-8.686-27.181-8.686S18.2,58.605,13.947,62.857C9.526,67.279,8.534,72.1,8.521,73.709Z" transform="translate(978.264 345.245)"/><g id="Grupo_195" data-name="Grupo 195" transform="translate(6 10)"><g id="Grupo_193" data-name="Grupo 193" transform="translate(927.355 343.542) rotate(90)"><path id="Trazado_101" fill="#ff4d00" d="M.029,20.508V3.758C.029,1.253,1.282,0,3.815,0h18.6C24.922,0,26.2,1.28,26.2,3.758c0,10.7-.027,21.38,0,32.083a9.805,9.805,0,1,0,19.609.136c.054-7.653,0-15.333,0-22.986V3.6A3.259,3.259,0,0,1,49.352.027H68.444A3.254,3.254,0,0,1,71.93,3.541c0,11,.082,22.006-.027,33.009A35.916,35.916,0,0,1,.738,42.923a43.843,43.843,0,0,1-.681-7.3C-.052,30.585.029,25.547.029,20.508Zm19.609,2.424H6.566c0,3.187-.054,6.291.027,9.423A64.172,64.172,0,0,0,7,40.608a29.392,29.392,0,0,0,58.42-4.739c.027-4.031,0-8.034,0-12.065,0-.3-.027-.6-.054-.872H52.348c0,4.276.027,8.443-.027,12.637a20.937,20.937,0,0,1-.436,4.14,16.286,16.286,0,0,1-32-1.552,75.728,75.728,0,0,1-.191-8.252C19.612,27.616,19.639,25.3,19.639,22.932Zm-.082-6.618v-9.7H6.62v9.7ZM65.339,6.591H52.375v9.668H65.339Z" data-name="Trazado 101" transform="translate(0 0)"/><path id="Trazado_102" fill="#f4f4f4" d="M13.134,0c0,2.369-.027,4.684,0,6.972.027,2.751-.109,5.529.191,8.252A16.184,16.184,0,0,0,28.549,29.332,16.326,16.326,0,0,0,45.326,16.777a19.078,19.078,0,0,0,.436-4.14c.054-4.194.027-8.361.027-12.637H58.808c.027.272.054.572.054.872,0,4.031.027,8.034,0,12.065A29.392,29.392,0,0,1,.443,17.676,63.929,63.929,0,0,1,.034,9.423C-.02,6.291.007,3.187.007,0Z" data-name="Trazado 102" transform="translate(6.505 22.932)"/><path id="Trazado_103" fill="#f4f4f4" d="M12.937,9.7H0V0H12.937Z" data-name="Trazado 103" transform="translate(6.62 6.618)"/><path id="Trazado_104" fill="#f4f4f4" d="M12.964,0V9.668H0V0Z" data-name="Trazado 104" transform="translate(52.375 6.591)"/></g><g id="Grupo_194" data-name="Grupo 194" transform="translate(948.993 346.591) rotate(90)"><path id="Trazado_105" fill="#ff4d00" d="M6.7,6.786c0,1.089.028,2.178,0,3.239a3.337,3.337,0,1,1-6.674,0q-.042-3.309,0-6.618A3.338,3.338,0,0,1,3.372,0,3.38,3.38,0,0,1,6.723,3.435C6.723,4.552,6.7,5.669,6.7,6.786Z" data-name="Trazado 105" transform="translate(0 0)"/><path id="Trazado_106" fill="#ff4d00" d="M6.7,6.674c0,1.117.028,2.234,0,3.351A3.354,3.354,0,0,1,3.316,13.4a3.356,3.356,0,0,1-3.3-3.379q-.042-3.351,0-6.7A3.29,3.29,0,0,1,3.316,0,3.354,3.354,0,0,1,6.667,3.323C6.7,4.44,6.7,5.557,6.7,6.674Z" data-name="Trazado 106" transform="translate(13.432 0)"/><path id="Trazado_107" fill="#ff4d00" d="M6.7,6.646c0,1.117.028,2.234,0,3.351A3.379,3.379,0,0,1,3.316,13.4a3.35,3.35,0,0,1-3.3-3.351q-.042-3.351,0-6.7A3.3,3.3,0,0,1,3.316,0,3.349,3.349,0,0,1,6.667,3.3C6.723,4.412,6.7,5.529,6.7,6.646Z" data-name="Trazado 107" transform="translate(46.943 0)"/><path id="Trazado_108" fill="#ff4d00" d="M.012,6.7c0-1.117-.028-2.234,0-3.351a3.337,3.337,0,1,1,6.674.028c.028,2.206.028,4.384,0,6.59A3.338,3.338,0,1,1,.012,9.942C-.016,8.881.012,7.792.012,6.7Z" data-name="Trazado 108" transform="translate(60.328 0)"/></g></g></g></svg>